<mxfile host="app.diagrams.net" modified="2023-04-26T07:30:59.560Z" agent="Mozilla/5.0 (Macintosh; Intel Mac OS X 10_15_7) AppleWebKit/537.36 (KHTML, like Gecko) Chrome/112.0.0.0 Safari/537.36" etag="QDOOEGUvA--fvtXDMwsC" version="21.1.9" type="device">
  <diagram name="Seite-1" id="ryvr-sqQh7eFuIhfHRLn">
    <mxGraphModel dx="1380" dy="547" grid="1" gridSize="10" guides="1" tooltips="1" connect="1" arrows="1" fold="1" page="1" pageScale="1" pageWidth="827" pageHeight="1169" math="0" shadow="0">
      <root>
        <mxCell id="0" />
        <mxCell id="1" parent="0" />
        <mxCell id="-WRu4L7y1sapClA_TCmU-2" value="" style="shape=cube;whiteSpace=wrap;html=1;boundedLbl=1;backgroundOutline=1;darkOpacity=0.05;darkOpacity2=0.1;" parent="1" vertex="1">
          <mxGeometry x="-780" y="30" width="440" height="1050" as="geometry" />
        </mxCell>
        <mxCell id="-WRu4L7y1sapClA_TCmU-3" value="&amp;lt;&amp;lt; device &amp;gt;&amp;gt;&lt;br&gt;Server xx" style="text;html=1;align=center;verticalAlign=middle;resizable=0;points=[];autosize=1;strokeColor=none;fillColor=none;" parent="1" vertex="1">
          <mxGeometry x="-605" y="60" width="90" height="40" as="geometry" />
        </mxCell>
        <mxCell id="-WRu4L7y1sapClA_TCmU-4" value="" style="shape=cube;whiteSpace=wrap;html=1;boundedLbl=1;backgroundOutline=1;darkOpacity=0.05;darkOpacity2=0.1;" parent="1" vertex="1">
          <mxGeometry x="-740" y="110" width="370" height="950" as="geometry" />
        </mxCell>
        <mxCell id="-WRu4L7y1sapClA_TCmU-5" value="&amp;lt;&amp;lt; execution-environment &amp;gt;&amp;gt;&lt;br&gt;Debian 11" style="text;html=1;align=center;verticalAlign=middle;resizable=0;points=[];autosize=1;strokeColor=none;fillColor=none;" parent="1" vertex="1">
          <mxGeometry x="-645" y="140" width="180" height="40" as="geometry" />
        </mxCell>
        <mxCell id="-WRu4L7y1sapClA_TCmU-7" value="" style="shape=cube;whiteSpace=wrap;html=1;boundedLbl=1;backgroundOutline=1;darkOpacity=0.05;darkOpacity2=0.1;" parent="1" vertex="1">
          <mxGeometry x="-700" y="200" width="310" height="360" as="geometry" />
        </mxCell>
        <mxCell id="-WRu4L7y1sapClA_TCmU-8" value="&amp;lt;&amp;lt; execution-environment &amp;gt;&amp;gt;&lt;br&gt;Apache Web Server" style="text;html=1;align=center;verticalAlign=middle;resizable=0;points=[];autosize=1;strokeColor=none;fillColor=none;" parent="1" vertex="1">
          <mxGeometry x="-635" y="230" width="180" height="40" as="geometry" />
        </mxCell>
        <mxCell id="-WRu4L7y1sapClA_TCmU-13" value="" style="shape=cube;whiteSpace=wrap;html=1;boundedLbl=1;backgroundOutline=1;darkOpacity=0.05;darkOpacity2=0.1;" parent="1" vertex="1">
          <mxGeometry x="-665" y="275" width="255" height="265" as="geometry" />
        </mxCell>
        <mxCell id="-WRu4L7y1sapClA_TCmU-14" value="&amp;lt;&amp;lt; execution-environment &amp;gt;&amp;gt;&lt;br&gt;NodeJS" style="text;html=1;align=center;verticalAlign=middle;resizable=0;points=[];autosize=1;strokeColor=none;fillColor=none;" parent="1" vertex="1">
          <mxGeometry x="-620" y="300" width="180" height="40" as="geometry" />
        </mxCell>
        <mxCell id="-WRu4L7y1sapClA_TCmU-15" value="" style="shape=cube;whiteSpace=wrap;html=1;boundedLbl=1;backgroundOutline=1;darkOpacity=0.05;darkOpacity2=0.1;" parent="1" vertex="1">
          <mxGeometry x="-700" y="850" width="310" height="190" as="geometry" />
        </mxCell>
        <mxCell id="-WRu4L7y1sapClA_TCmU-16" value="&amp;lt;&amp;lt; execution-environment &amp;gt;&amp;gt;&lt;br&gt;Datenbank" style="text;html=1;align=center;verticalAlign=middle;resizable=0;points=[];autosize=1;strokeColor=none;fillColor=none;" parent="1" vertex="1">
          <mxGeometry x="-627" y="890" width="180" height="40" as="geometry" />
        </mxCell>
        <mxCell id="-WRu4L7y1sapClA_TCmU-17" value="" style="shape=cube;whiteSpace=wrap;html=1;boundedLbl=1;backgroundOutline=1;darkOpacity=0.05;darkOpacity2=0.1;" parent="1" vertex="1">
          <mxGeometry x="-666" y="940" width="256" height="80" as="geometry" />
        </mxCell>
        <mxCell id="-WRu4L7y1sapClA_TCmU-18" value="&amp;lt;&amp;lt; artifact &amp;gt;&amp;gt;&lt;br&gt;H2" style="text;html=1;align=center;verticalAlign=middle;resizable=0;points=[];autosize=1;strokeColor=none;fillColor=none;" parent="1" vertex="1">
          <mxGeometry x="-575" y="970" width="90" height="40" as="geometry" />
        </mxCell>
        <mxCell id="-WRu4L7y1sapClA_TCmU-19" value="&lt;font style=&quot;font-size: 24px;&quot;&gt;Smart Home&lt;/font&gt;" style="text;html=1;align=center;verticalAlign=middle;resizable=0;points=[];autosize=1;strokeColor=none;fillColor=none;" parent="1" vertex="1">
          <mxGeometry x="245" y="10" width="160" height="40" as="geometry" />
        </mxCell>
        <mxCell id="-WRu4L7y1sapClA_TCmU-20" value="" style="shape=cube;whiteSpace=wrap;html=1;boundedLbl=1;backgroundOutline=1;darkOpacity=0.05;darkOpacity2=0.1;" parent="1" vertex="1">
          <mxGeometry x="1190" y="72.5" width="290" height="487.5" as="geometry" />
        </mxCell>
        <mxCell id="-WRu4L7y1sapClA_TCmU-21" value="&amp;lt;&amp;lt; device &amp;gt;&amp;gt;&lt;br&gt;&lt;u&gt;&lt;b&gt;sm01: Smart Grid Dortmund&lt;/b&gt;&lt;/u&gt;" style="text;html=1;align=center;verticalAlign=middle;resizable=0;points=[];autosize=1;strokeColor=none;fillColor=none;" parent="1" vertex="1">
          <mxGeometry x="1260" y="110" width="180" height="40" as="geometry" />
        </mxCell>
        <mxCell id="-WRu4L7y1sapClA_TCmU-32" value="&lt;font style=&quot;font-size: 24px;&quot;&gt;Smart Grid&lt;/font&gt;" style="text;html=1;align=center;verticalAlign=middle;resizable=0;points=[];autosize=1;strokeColor=none;fillColor=none;" parent="1" vertex="1">
          <mxGeometry x="1276" y="9" width="140" height="40" as="geometry" />
        </mxCell>
        <mxCell id="-WRu4L7y1sapClA_TCmU-37" value="" style="shape=cube;whiteSpace=wrap;html=1;boundedLbl=1;backgroundOutline=1;darkOpacity=0.05;darkOpacity2=0.1;" parent="1" vertex="1">
          <mxGeometry x="-700" y="600" width="305" height="230" as="geometry" />
        </mxCell>
        <mxCell id="-WRu4L7y1sapClA_TCmU-38" value="&amp;lt;&amp;lt; execution-environment &amp;gt;&amp;gt;&lt;br&gt;JVM" style="text;html=1;align=center;verticalAlign=middle;resizable=0;points=[];autosize=1;strokeColor=none;fillColor=none;" parent="1" vertex="1">
          <mxGeometry x="-620" y="635" width="180" height="40" as="geometry" />
        </mxCell>
        <mxCell id="-WRu4L7y1sapClA_TCmU-39" value="" style="shape=cube;whiteSpace=wrap;html=1;boundedLbl=1;backgroundOutline=1;darkOpacity=0.05;darkOpacity2=0.1;" parent="1" vertex="1">
          <mxGeometry x="-666" y="690" width="256" height="120" as="geometry" />
        </mxCell>
        <mxCell id="-WRu4L7y1sapClA_TCmU-40" value="&amp;lt;&amp;lt; execution-environment &amp;gt;&amp;gt;&lt;br&gt;Spring Boot" style="text;html=1;align=center;verticalAlign=middle;resizable=0;points=[];autosize=1;strokeColor=none;fillColor=none;" parent="1" vertex="1">
          <mxGeometry x="-617.5" y="720" width="180" height="40" as="geometry" />
        </mxCell>
        <mxCell id="-WRu4L7y1sapClA_TCmU-41" value="&lt;span style=&quot;font-size: 24px;&quot;&gt;MQTT Broker&lt;/span&gt;" style="text;html=1;align=center;verticalAlign=middle;resizable=0;points=[];autosize=1;strokeColor=none;fillColor=none;" parent="1" vertex="1">
          <mxGeometry x="780" y="137.5" width="170" height="40" as="geometry" />
        </mxCell>
        <mxCell id="-WRu4L7y1sapClA_TCmU-42" value="" style="shape=cube;whiteSpace=wrap;html=1;boundedLbl=1;backgroundOutline=1;darkOpacity=0.05;darkOpacity2=0.1;" parent="1" vertex="1">
          <mxGeometry x="652" y="190" width="410" height="300" as="geometry" />
        </mxCell>
        <mxCell id="-WRu4L7y1sapClA_TCmU-43" value="&amp;lt;&amp;lt; device &amp;gt;&amp;gt; &lt;b&gt;&lt;u&gt;b01: Broker 1&lt;/u&gt;&lt;/b&gt;" style="text;html=1;align=center;verticalAlign=middle;resizable=0;points=[];autosize=1;strokeColor=none;fillColor=none;" parent="1" vertex="1">
          <mxGeometry x="790" y="220" width="170" height="30" as="geometry" />
        </mxCell>
        <mxCell id="-WRu4L7y1sapClA_TCmU-44" value="" style="shape=cube;whiteSpace=wrap;html=1;boundedLbl=1;backgroundOutline=1;darkOpacity=0.05;darkOpacity2=0.1;" parent="1" vertex="1">
          <mxGeometry x="710" y="270" width="340" height="200" as="geometry" />
        </mxCell>
        <mxCell id="-WRu4L7y1sapClA_TCmU-46" value="&amp;lt;&amp;lt; execution environment &amp;gt;&amp;gt;&lt;br&gt;Debian 11" style="text;html=1;align=center;verticalAlign=middle;resizable=0;points=[];autosize=1;strokeColor=none;fillColor=none;" parent="1" vertex="1">
          <mxGeometry x="792.5" y="300" width="180" height="40" as="geometry" />
        </mxCell>
        <mxCell id="-WRu4L7y1sapClA_TCmU-47" value="" style="shape=cube;whiteSpace=wrap;html=1;boundedLbl=1;backgroundOutline=1;darkOpacity=0.05;darkOpacity2=0.1;" parent="1" vertex="1">
          <mxGeometry x="760" y="370" width="260" height="80" as="geometry" />
        </mxCell>
        <mxCell id="-WRu4L7y1sapClA_TCmU-48" value="&amp;lt;&amp;lt; message broker &amp;gt;&amp;gt;&lt;br&gt;&lt;b&gt;&lt;u&gt;mqo1: Mosquitto: MQTT-Broker&lt;/u&gt;&lt;/b&gt;" style="text;html=1;align=center;verticalAlign=middle;resizable=0;points=[];autosize=1;strokeColor=none;fillColor=none;" parent="1" vertex="1">
          <mxGeometry x="800" y="400" width="200" height="40" as="geometry" />
        </mxCell>
        <mxCell id="-WRu4L7y1sapClA_TCmU-53" value="" style="shape=cube;whiteSpace=wrap;html=1;boundedLbl=1;backgroundOutline=1;darkOpacity=0.05;darkOpacity2=0.1;" parent="1" vertex="1">
          <mxGeometry x="890" y="670" width="310" height="100" as="geometry" />
        </mxCell>
        <mxCell id="-WRu4L7y1sapClA_TCmU-54" value="&amp;lt;&amp;lt; device &amp;gt;&amp;gt; &lt;b&gt;&lt;u&gt;ws01: Wetter-Station&lt;/u&gt;&lt;/b&gt;&lt;br&gt;&lt;b&gt;Wetter-Station&lt;/b&gt;" style="text;html=1;align=center;verticalAlign=middle;resizable=0;points=[];autosize=1;strokeColor=none;fillColor=none;" parent="1" vertex="1">
          <mxGeometry x="940" y="700" width="210" height="40" as="geometry" />
        </mxCell>
        <mxCell id="-WRu4L7y1sapClA_TCmU-55" value="" style="shape=cube;whiteSpace=wrap;html=1;boundedLbl=1;backgroundOutline=1;darkOpacity=0.05;darkOpacity2=0.1;" parent="1" vertex="1">
          <mxGeometry x="557" y="670" width="310" height="100" as="geometry" />
        </mxCell>
        <mxCell id="-WRu4L7y1sapClA_TCmU-56" value="&amp;lt;&amp;lt; device &amp;gt;&amp;gt; &lt;u&gt;&lt;b&gt;zs01: Zeit-Station&lt;/b&gt;&lt;/u&gt;&lt;br&gt;&lt;b&gt;Zeit-Station&lt;/b&gt;" style="text;html=1;align=center;verticalAlign=middle;resizable=0;points=[];autosize=1;strokeColor=none;fillColor=none;" parent="1" vertex="1">
          <mxGeometry x="612" y="700" width="200" height="40" as="geometry" />
        </mxCell>
        <mxCell id="-WRu4L7y1sapClA_TCmU-57" value="" style="endArrow=classic;html=1;rounded=0;exitX=0;exitY=0;exitDx=145;exitDy=0;exitPerimeter=0;entryX=0.3;entryY=1.05;entryDx=0;entryDy=0;entryPerimeter=0;" parent="1" source="-WRu4L7y1sapClA_TCmU-55" target="-WRu4L7y1sapClA_TCmU-47" edge="1">
          <mxGeometry width="50" height="50" relative="1" as="geometry">
            <mxPoint x="860" y="480" as="sourcePoint" />
            <mxPoint x="910" y="430" as="targetPoint" />
          </mxGeometry>
        </mxCell>
        <mxCell id="-WRu4L7y1sapClA_TCmU-58" value="" style="endArrow=classic;html=1;rounded=0;exitX=0;exitY=0;exitDx=145;exitDy=0;exitPerimeter=0;entryX=0.788;entryY=1.013;entryDx=0;entryDy=0;entryPerimeter=0;" parent="1" source="-WRu4L7y1sapClA_TCmU-53" target="-WRu4L7y1sapClA_TCmU-47" edge="1">
          <mxGeometry width="50" height="50" relative="1" as="geometry">
            <mxPoint x="860" y="480" as="sourcePoint" />
            <mxPoint x="910" y="430" as="targetPoint" />
          </mxGeometry>
        </mxCell>
        <mxCell id="qaaTqhLe1n3TZgxzp7vh-4" value="publish" style="text;strokeColor=none;fillColor=none;align=left;verticalAlign=middle;spacingLeft=4;spacingRight=4;overflow=hidden;points=[[0,0.5],[1,0.5]];portConstraint=eastwest;rotatable=0;whiteSpace=wrap;html=1;" parent="1" vertex="1">
          <mxGeometry x="1005" y="530" width="80" height="60" as="geometry" />
        </mxCell>
        <mxCell id="qaaTqhLe1n3TZgxzp7vh-5" value="publish" style="text;strokeColor=none;fillColor=none;align=left;verticalAlign=middle;spacingLeft=4;spacingRight=4;overflow=hidden;points=[[0,0.5],[1,0.5]];portConstraint=eastwest;rotatable=0;whiteSpace=wrap;html=1;" parent="1" vertex="1">
          <mxGeometry x="720" y="530" width="80" height="60" as="geometry" />
        </mxCell>
        <mxCell id="qaaTqhLe1n3TZgxzp7vh-8" value="" style="shape=cube;whiteSpace=wrap;html=1;boundedLbl=1;backgroundOutline=1;darkOpacity=0.05;darkOpacity2=0.1;" parent="1" vertex="1">
          <mxGeometry x="-630" y="350" width="200" height="180" as="geometry" />
        </mxCell>
        <mxCell id="qaaTqhLe1n3TZgxzp7vh-9" value="&amp;lt;&amp;lt; execution-environment &amp;gt;&amp;gt;&lt;br&gt;Angular" style="text;html=1;align=center;verticalAlign=middle;resizable=0;points=[];autosize=1;strokeColor=none;fillColor=none;" parent="1" vertex="1">
          <mxGeometry x="-610" y="380" width="180" height="40" as="geometry" />
        </mxCell>
        <mxCell id="qaaTqhLe1n3TZgxzp7vh-10" value="&amp;lt;&amp;lt; artifact &amp;gt;&amp;gt;&lt;br&gt;......." style="rounded=0;whiteSpace=wrap;html=1;" parent="1" vertex="1">
          <mxGeometry x="-630" y="760" width="100" height="40" as="geometry" />
        </mxCell>
        <mxCell id="qaaTqhLe1n3TZgxzp7vh-11" value="&amp;lt;&amp;lt; artifact &amp;gt;&amp;gt;&lt;br&gt;......." style="rounded=0;whiteSpace=wrap;html=1;" parent="1" vertex="1">
          <mxGeometry x="-520" y="760" width="100" height="40" as="geometry" />
        </mxCell>
        <mxCell id="qaaTqhLe1n3TZgxzp7vh-12" value="&amp;lt;&amp;lt; artifact &amp;gt;&amp;gt;&lt;br&gt;......." style="rounded=0;whiteSpace=wrap;html=1;" parent="1" vertex="1">
          <mxGeometry x="-570" y="430" width="100" height="40" as="geometry" />
        </mxCell>
        <mxCell id="qaaTqhLe1n3TZgxzp7vh-13" value="&amp;lt;&amp;lt; artifact &amp;gt;&amp;gt;&lt;br&gt;......." style="rounded=0;whiteSpace=wrap;html=1;" parent="1" vertex="1">
          <mxGeometry x="-570" y="480" width="100" height="40" as="geometry" />
        </mxCell>
        <mxCell id="32DjMHj66T7dqpbvuF7c-1" value="" style="shape=cube;whiteSpace=wrap;html=1;boundedLbl=1;backgroundOutline=1;darkOpacity=0.05;darkOpacity2=0.1;" parent="1" vertex="1">
          <mxGeometry x="200" y="72.5" width="250" height="70" as="geometry" />
        </mxCell>
        <mxCell id="32DjMHj66T7dqpbvuF7c-2" value="&amp;lt;&amp;lt; device &amp;gt;&amp;gt; &lt;b&gt;&lt;u&gt;sh01: Smart Home Hub&lt;/u&gt;&lt;/b&gt;" style="text;html=1;align=center;verticalAlign=middle;resizable=0;points=[];autosize=1;strokeColor=none;fillColor=none;" parent="1" vertex="1">
          <mxGeometry x="215" y="102.5" width="230" height="30" as="geometry" />
        </mxCell>
        <mxCell id="32DjMHj66T7dqpbvuF7c-3" value="" style="shape=cube;whiteSpace=wrap;html=1;boundedLbl=1;backgroundOutline=1;darkOpacity=0.05;darkOpacity2=0.1;" parent="1" vertex="1">
          <mxGeometry x="205" y="177.5" width="250" height="70" as="geometry" />
        </mxCell>
        <mxCell id="32DjMHj66T7dqpbvuF7c-4" value="&amp;lt;&amp;lt; device &amp;gt;&amp;gt; &lt;b&gt;&lt;u&gt;sh02: Smart Home Hub&lt;/u&gt;&lt;/b&gt;" style="text;html=1;align=center;verticalAlign=middle;resizable=0;points=[];autosize=1;strokeColor=none;fillColor=none;" parent="1" vertex="1">
          <mxGeometry x="220" y="207.5" width="230" height="30" as="geometry" />
        </mxCell>
        <mxCell id="32DjMHj66T7dqpbvuF7c-5" value="" style="shape=cube;whiteSpace=wrap;html=1;boundedLbl=1;backgroundOutline=1;darkOpacity=0.05;darkOpacity2=0.1;" parent="1" vertex="1">
          <mxGeometry x="205" y="282.5" width="250" height="70" as="geometry" />
        </mxCell>
        <mxCell id="32DjMHj66T7dqpbvuF7c-6" value="&amp;lt;&amp;lt; device &amp;gt;&amp;gt; &lt;b&gt;&lt;u&gt;sh03: Smart Home Hub&lt;/u&gt;&lt;/b&gt;" style="text;html=1;align=center;verticalAlign=middle;resizable=0;points=[];autosize=1;strokeColor=none;fillColor=none;" parent="1" vertex="1">
          <mxGeometry x="220" y="312.5" width="230" height="30" as="geometry" />
        </mxCell>
        <mxCell id="32DjMHj66T7dqpbvuF7c-7" value="" style="shape=cube;whiteSpace=wrap;html=1;boundedLbl=1;backgroundOutline=1;darkOpacity=0.05;darkOpacity2=0.1;" parent="1" vertex="1">
          <mxGeometry x="210" y="387.5" width="250" height="70" as="geometry" />
        </mxCell>
        <mxCell id="32DjMHj66T7dqpbvuF7c-8" value="&amp;lt;&amp;lt; device &amp;gt;&amp;gt; &lt;b&gt;&lt;u&gt;sh04: Smart Home Hub&lt;/u&gt;&lt;/b&gt;" style="text;html=1;align=center;verticalAlign=middle;resizable=0;points=[];autosize=1;strokeColor=none;fillColor=none;" parent="1" vertex="1">
          <mxGeometry x="225" y="417.5" width="230" height="30" as="geometry" />
        </mxCell>
        <mxCell id="32DjMHj66T7dqpbvuF7c-9" value="" style="shape=cube;whiteSpace=wrap;html=1;boundedLbl=1;backgroundOutline=1;darkOpacity=0.05;darkOpacity2=0.1;" parent="1" vertex="1">
          <mxGeometry x="215" y="497.5" width="250" height="70" as="geometry" />
        </mxCell>
        <mxCell id="32DjMHj66T7dqpbvuF7c-10" value="&amp;lt;&amp;lt; device &amp;gt;&amp;gt; &lt;b&gt;&lt;u&gt;sh05: Smart Home Hub&lt;/u&gt;&lt;/b&gt;" style="text;html=1;align=center;verticalAlign=middle;resizable=0;points=[];autosize=1;strokeColor=none;fillColor=none;" parent="1" vertex="1">
          <mxGeometry x="230" y="527.5" width="230" height="30" as="geometry" />
        </mxCell>
        <mxCell id="32DjMHj66T7dqpbvuF7c-13" value="" style="endArrow=none;html=1;rounded=0;exitX=0;exitY=0;exitDx=250;exitDy=45;exitPerimeter=0;entryX=0;entryY=0;entryDx=0;entryDy=140;entryPerimeter=0;" parent="1" source="32DjMHj66T7dqpbvuF7c-1" target="-WRu4L7y1sapClA_TCmU-42" edge="1">
          <mxGeometry width="50" height="50" relative="1" as="geometry">
            <mxPoint x="520" y="270" as="sourcePoint" />
            <mxPoint x="650" y="320" as="targetPoint" />
          </mxGeometry>
        </mxCell>
        <mxCell id="32DjMHj66T7dqpbvuF7c-14" value="" style="endArrow=none;html=1;rounded=0;exitX=0;exitY=0;exitDx=250;exitDy=45;exitPerimeter=0;entryX=0;entryY=0;entryDx=0;entryDy=140;entryPerimeter=0;" parent="1" target="-WRu4L7y1sapClA_TCmU-42" edge="1">
          <mxGeometry width="50" height="50" relative="1" as="geometry">
            <mxPoint x="454" y="222.5" as="sourcePoint" />
            <mxPoint x="660" y="284" as="targetPoint" />
          </mxGeometry>
        </mxCell>
        <mxCell id="32DjMHj66T7dqpbvuF7c-15" value="" style="endArrow=none;html=1;rounded=0;exitX=0;exitY=0;exitDx=250;exitDy=45;exitPerimeter=0;entryX=0;entryY=0;entryDx=0;entryDy=140;entryPerimeter=0;" parent="1" source="32DjMHj66T7dqpbvuF7c-5" target="-WRu4L7y1sapClA_TCmU-42" edge="1">
          <mxGeometry width="50" height="50" relative="1" as="geometry">
            <mxPoint x="840" y="300" as="sourcePoint" />
            <mxPoint x="890" y="250" as="targetPoint" />
          </mxGeometry>
        </mxCell>
        <mxCell id="32DjMHj66T7dqpbvuF7c-16" value="" style="endArrow=none;html=1;rounded=0;entryX=0;entryY=0;entryDx=250;entryDy=45;entryPerimeter=0;exitX=0;exitY=0;exitDx=0;exitDy=140;exitPerimeter=0;" parent="1" source="-WRu4L7y1sapClA_TCmU-42" target="32DjMHj66T7dqpbvuF7c-7" edge="1">
          <mxGeometry width="50" height="50" relative="1" as="geometry">
            <mxPoint x="660" y="370" as="sourcePoint" />
            <mxPoint x="890" y="250" as="targetPoint" />
          </mxGeometry>
        </mxCell>
        <mxCell id="32DjMHj66T7dqpbvuF7c-17" value="" style="endArrow=none;html=1;rounded=0;exitX=0;exitY=0;exitDx=250;exitDy=45;exitPerimeter=0;entryX=0;entryY=0;entryDx=0;entryDy=140;entryPerimeter=0;" parent="1" source="32DjMHj66T7dqpbvuF7c-9" target="-WRu4L7y1sapClA_TCmU-42" edge="1">
          <mxGeometry width="50" height="50" relative="1" as="geometry">
            <mxPoint x="840" y="400" as="sourcePoint" />
            <mxPoint x="890" y="350" as="targetPoint" />
          </mxGeometry>
        </mxCell>
        <mxCell id="32DjMHj66T7dqpbvuF7c-18" value="publish" style="text;strokeColor=none;fillColor=none;align=left;verticalAlign=middle;spacingLeft=4;spacingRight=4;overflow=hidden;points=[[0,0.5],[1,0.5]];portConstraint=eastwest;rotatable=0;whiteSpace=wrap;html=1;" parent="1" vertex="1">
          <mxGeometry x="470" y="527.5" width="80" height="60" as="geometry" />
        </mxCell>
        <mxCell id="32DjMHj66T7dqpbvuF7c-19" value="publish" style="text;strokeColor=none;fillColor=none;align=left;verticalAlign=middle;spacingLeft=4;spacingRight=4;overflow=hidden;points=[[0,0.5],[1,0.5]];portConstraint=eastwest;rotatable=0;whiteSpace=wrap;html=1;" parent="1" vertex="1">
          <mxGeometry x="460" y="420" width="80" height="60" as="geometry" />
        </mxCell>
        <mxCell id="32DjMHj66T7dqpbvuF7c-22" value="publish" style="text;strokeColor=none;fillColor=none;align=left;verticalAlign=middle;spacingLeft=4;spacingRight=4;overflow=hidden;points=[[0,0.5],[1,0.5]];portConstraint=eastwest;rotatable=0;whiteSpace=wrap;html=1;" parent="1" vertex="1">
          <mxGeometry x="454" y="325" width="80" height="60" as="geometry" />
        </mxCell>
        <mxCell id="32DjMHj66T7dqpbvuF7c-23" value="publish" style="text;strokeColor=none;fillColor=none;align=left;verticalAlign=middle;spacingLeft=4;spacingRight=4;overflow=hidden;points=[[0,0.5],[1,0.5]];portConstraint=eastwest;rotatable=0;whiteSpace=wrap;html=1;" parent="1" vertex="1">
          <mxGeometry x="450" y="177.5" width="80" height="60" as="geometry" />
        </mxCell>
        <mxCell id="32DjMHj66T7dqpbvuF7c-24" value="publish" style="text;strokeColor=none;fillColor=none;align=left;verticalAlign=middle;spacingLeft=4;spacingRight=4;overflow=hidden;points=[[0,0.5],[1,0.5]];portConstraint=eastwest;rotatable=0;whiteSpace=wrap;html=1;" parent="1" vertex="1">
          <mxGeometry x="450" y="72.5" width="80" height="60" as="geometry" />
        </mxCell>
        <mxCell id="32DjMHj66T7dqpbvuF7c-25" value="subscribe" style="text;strokeColor=none;fillColor=none;align=left;verticalAlign=middle;spacingLeft=4;spacingRight=4;overflow=hidden;points=[[0,0.5],[1,0.5]];portConstraint=eastwest;rotatable=0;whiteSpace=wrap;html=1;" parent="1" vertex="1">
          <mxGeometry x="445" y="50" width="80" height="60" as="geometry" />
        </mxCell>
        <mxCell id="32DjMHj66T7dqpbvuF7c-26" value="subscribe" style="text;strokeColor=none;fillColor=none;align=left;verticalAlign=middle;spacingLeft=4;spacingRight=4;overflow=hidden;points=[[0,0.5],[1,0.5]];portConstraint=eastwest;rotatable=0;whiteSpace=wrap;html=1;" parent="1" vertex="1">
          <mxGeometry x="445" y="160" width="80" height="60" as="geometry" />
        </mxCell>
        <mxCell id="32DjMHj66T7dqpbvuF7c-27" value="subscribe" style="text;strokeColor=none;fillColor=none;align=left;verticalAlign=middle;spacingLeft=4;spacingRight=4;overflow=hidden;points=[[0,0.5],[1,0.5]];portConstraint=eastwest;rotatable=0;whiteSpace=wrap;html=1;" parent="1" vertex="1">
          <mxGeometry x="454" y="310" width="80" height="60" as="geometry" />
        </mxCell>
        <mxCell id="32DjMHj66T7dqpbvuF7c-28" value="subscribe" style="text;strokeColor=none;fillColor=none;align=left;verticalAlign=middle;spacingLeft=4;spacingRight=4;overflow=hidden;points=[[0,0.5],[1,0.5]];portConstraint=eastwest;rotatable=0;whiteSpace=wrap;html=1;" parent="1" vertex="1">
          <mxGeometry x="460" y="410" width="80" height="60" as="geometry" />
        </mxCell>
        <mxCell id="32DjMHj66T7dqpbvuF7c-29" value="subscribe" style="text;strokeColor=none;fillColor=none;align=left;verticalAlign=middle;spacingLeft=4;spacingRight=4;overflow=hidden;points=[[0,0.5],[1,0.5]];portConstraint=eastwest;rotatable=0;whiteSpace=wrap;html=1;" parent="1" vertex="1">
          <mxGeometry x="470" y="510" width="80" height="60" as="geometry" />
        </mxCell>
        <mxCell id="32DjMHj66T7dqpbvuF7c-30" value="" style="endArrow=none;html=1;rounded=0;entryX=0;entryY=0;entryDx=0;entryDy=233.75;entryPerimeter=0;exitX=0;exitY=0;exitDx=410;exitDy=160;exitPerimeter=0;" parent="1" source="-WRu4L7y1sapClA_TCmU-42" target="-WRu4L7y1sapClA_TCmU-20" edge="1">
          <mxGeometry width="50" height="50" relative="1" as="geometry">
            <mxPoint x="900" y="500" as="sourcePoint" />
            <mxPoint x="950" y="450" as="targetPoint" />
          </mxGeometry>
        </mxCell>
        <mxCell id="32DjMHj66T7dqpbvuF7c-31" value="publish&lt;br&gt;subscribe" style="text;html=1;align=center;verticalAlign=middle;resizable=0;points=[];autosize=1;strokeColor=none;fillColor=none;" parent="1" vertex="1">
          <mxGeometry x="1085" y="282.5" width="70" height="40" as="geometry" />
        </mxCell>
        <mxCell id="32DjMHj66T7dqpbvuF7c-135" style="edgeStyle=orthogonalEdgeStyle;rounded=0;orthogonalLoop=1;jettySize=auto;html=1;entryX=0;entryY=0.5;entryDx=0;entryDy=0;entryPerimeter=0;endArrow=none;endFill=0;" parent="1" source="32DjMHj66T7dqpbvuF7c-38" target="32DjMHj66T7dqpbvuF7c-132" edge="1">
          <mxGeometry relative="1" as="geometry" />
        </mxCell>
        <mxCell id="32DjMHj66T7dqpbvuF7c-137" style="edgeStyle=orthogonalEdgeStyle;rounded=0;orthogonalLoop=1;jettySize=auto;html=1;exitX=1;exitY=0.5;exitDx=0;exitDy=0;endArrow=none;endFill=0;" parent="1" source="32DjMHj66T7dqpbvuF7c-38" target="32DjMHj66T7dqpbvuF7c-136" edge="1">
          <mxGeometry relative="1" as="geometry" />
        </mxCell>
        <mxCell id="32DjMHj66T7dqpbvuF7c-38" value="" style="html=1;whiteSpace=wrap;" parent="1" vertex="1">
          <mxGeometry x="645.5" y="2590" width="250" height="140" as="geometry" />
        </mxCell>
        <mxCell id="32DjMHj66T7dqpbvuF7c-39" value="&lt;b&gt;MQTT&lt;/b&gt;" style="text;html=1;align=center;verticalAlign=middle;resizable=0;points=[];autosize=1;strokeColor=none;fillColor=none;" parent="1" vertex="1">
          <mxGeometry x="730.5" y="2620" width="60" height="30" as="geometry" />
        </mxCell>
        <mxCell id="32DjMHj66T7dqpbvuF7c-40" value="" style="shape=module;align=left;spacingLeft=20;align=center;verticalAlign=top;whiteSpace=wrap;html=1;" parent="1" vertex="1">
          <mxGeometry x="830.5" y="2600" width="50" height="50" as="geometry" />
        </mxCell>
        <mxCell id="32DjMHj66T7dqpbvuF7c-41" value="&amp;lt;&amp;lt; component &amp;gt;&amp;gt;" style="text;html=1;align=center;verticalAlign=middle;resizable=0;points=[];autosize=1;strokeColor=none;fillColor=none;" parent="1" vertex="1">
          <mxGeometry x="635.5" y="2590" width="120" height="30" as="geometry" />
        </mxCell>
        <mxCell id="32DjMHj66T7dqpbvuF7c-104" style="edgeStyle=orthogonalEdgeStyle;rounded=0;orthogonalLoop=1;jettySize=auto;html=1;exitX=0.5;exitY=0;exitDx=0;exitDy=0;endArrow=none;endFill=0;" parent="1" source="32DjMHj66T7dqpbvuF7c-50" edge="1">
          <mxGeometry relative="1" as="geometry">
            <mxPoint x="1278.5" y="2690" as="targetPoint" />
          </mxGeometry>
        </mxCell>
        <mxCell id="32DjMHj66T7dqpbvuF7c-124" style="edgeStyle=orthogonalEdgeStyle;rounded=0;orthogonalLoop=1;jettySize=auto;html=1;exitX=0;exitY=0.5;exitDx=0;exitDy=0;endArrow=none;endFill=0;" parent="1" source="32DjMHj66T7dqpbvuF7c-50" edge="1">
          <mxGeometry relative="1" as="geometry">
            <mxPoint x="1050.5" y="2800" as="targetPoint" />
            <Array as="points">
              <mxPoint x="1100.5" y="2800" />
              <mxPoint x="1100.5" y="2800" />
            </Array>
          </mxGeometry>
        </mxCell>
        <mxCell id="32DjMHj66T7dqpbvuF7c-50" value="" style="html=1;whiteSpace=wrap;" parent="1" vertex="1">
          <mxGeometry x="1153.5" y="2730" width="250" height="140" as="geometry" />
        </mxCell>
        <mxCell id="32DjMHj66T7dqpbvuF7c-51" value="&lt;b&gt;Backend&lt;/b&gt;" style="text;html=1;align=center;verticalAlign=middle;resizable=0;points=[];autosize=1;strokeColor=none;fillColor=none;" parent="1" vertex="1">
          <mxGeometry x="1233.5" y="2760" width="70" height="30" as="geometry" />
        </mxCell>
        <mxCell id="32DjMHj66T7dqpbvuF7c-52" value="" style="shape=module;align=left;spacingLeft=20;align=center;verticalAlign=top;whiteSpace=wrap;html=1;" parent="1" vertex="1">
          <mxGeometry x="1338.5" y="2740" width="50" height="50" as="geometry" />
        </mxCell>
        <mxCell id="32DjMHj66T7dqpbvuF7c-53" value="&amp;lt;&amp;lt; component &amp;gt;&amp;gt;" style="text;html=1;align=center;verticalAlign=middle;resizable=0;points=[];autosize=1;strokeColor=none;fillColor=none;" parent="1" vertex="1">
          <mxGeometry x="1150.5" y="2730" width="120" height="30" as="geometry" />
        </mxCell>
        <mxCell id="32DjMHj66T7dqpbvuF7c-100" style="edgeStyle=orthogonalEdgeStyle;rounded=0;orthogonalLoop=1;jettySize=auto;html=1;endArrow=none;endFill=0;" parent="1" source="32DjMHj66T7dqpbvuF7c-54" edge="1">
          <mxGeometry relative="1" as="geometry">
            <mxPoint x="205.5" y="2690" as="targetPoint" />
          </mxGeometry>
        </mxCell>
        <mxCell id="32DjMHj66T7dqpbvuF7c-120" style="edgeStyle=orthogonalEdgeStyle;rounded=0;orthogonalLoop=1;jettySize=auto;html=1;exitX=1;exitY=0.5;exitDx=0;exitDy=0;endArrow=none;endFill=0;" parent="1" source="32DjMHj66T7dqpbvuF7c-54" edge="1">
          <mxGeometry relative="1" as="geometry">
            <mxPoint x="460.5" y="2800" as="targetPoint" />
          </mxGeometry>
        </mxCell>
        <mxCell id="32DjMHj66T7dqpbvuF7c-54" value="" style="html=1;whiteSpace=wrap;" parent="1" vertex="1">
          <mxGeometry x="80.5" y="2730" width="250" height="140" as="geometry" />
        </mxCell>
        <mxCell id="32DjMHj66T7dqpbvuF7c-55" value="&lt;b&gt;Webanwendung&lt;/b&gt;" style="text;html=1;align=center;verticalAlign=middle;resizable=0;points=[];autosize=1;strokeColor=none;fillColor=none;" parent="1" vertex="1">
          <mxGeometry x="135.5" y="2760" width="120" height="30" as="geometry" />
        </mxCell>
        <mxCell id="32DjMHj66T7dqpbvuF7c-56" value="" style="shape=module;align=left;spacingLeft=20;align=center;verticalAlign=top;whiteSpace=wrap;html=1;" parent="1" vertex="1">
          <mxGeometry x="265.5" y="2740" width="50" height="50" as="geometry" />
        </mxCell>
        <mxCell id="32DjMHj66T7dqpbvuF7c-57" value="&amp;lt;&amp;lt; component &amp;gt;&amp;gt;" style="text;html=1;align=center;verticalAlign=middle;resizable=0;points=[];autosize=1;strokeColor=none;fillColor=none;" parent="1" vertex="1">
          <mxGeometry x="78.5" y="2730" width="120" height="30" as="geometry" />
        </mxCell>
        <mxCell id="32DjMHj66T7dqpbvuF7c-61" value="" style="edgeStyle=orthogonalEdgeStyle;rounded=0;orthogonalLoop=1;jettySize=auto;html=1;dashed=1;" parent="1" source="32DjMHj66T7dqpbvuF7c-58" target="32DjMHj66T7dqpbvuF7c-54" edge="1">
          <mxGeometry relative="1" as="geometry" />
        </mxCell>
        <mxCell id="32DjMHj66T7dqpbvuF7c-58" value="&lt;b&gt;Java-Anwendung&lt;/b&gt;" style="html=1;whiteSpace=wrap;" parent="1" vertex="1">
          <mxGeometry x="140.5" y="2950" width="130" height="140" as="geometry" />
        </mxCell>
        <mxCell id="32DjMHj66T7dqpbvuF7c-59" value="" style="shape=note;size=20;whiteSpace=wrap;html=1;" parent="1" vertex="1">
          <mxGeometry x="230.5" y="2960" width="30" height="40" as="geometry" />
        </mxCell>
        <mxCell id="32DjMHj66T7dqpbvuF7c-60" value="&amp;lt;&amp;lt; artifact &amp;gt;&amp;gt;" style="text;html=1;align=center;verticalAlign=middle;resizable=0;points=[];autosize=1;strokeColor=none;fillColor=none;" parent="1" vertex="1">
          <mxGeometry x="140.5" y="2950" width="90" height="30" as="geometry" />
        </mxCell>
        <mxCell id="32DjMHj66T7dqpbvuF7c-62" value="&amp;lt;&amp;lt; manifest &amp;gt;&amp;gt;" style="text;html=1;align=center;verticalAlign=middle;resizable=0;points=[];autosize=1;strokeColor=none;fillColor=none;" parent="1" vertex="1">
          <mxGeometry x="206.5" y="2898" width="100" height="30" as="geometry" />
        </mxCell>
        <mxCell id="32DjMHj66T7dqpbvuF7c-101" style="edgeStyle=orthogonalEdgeStyle;rounded=0;orthogonalLoop=1;jettySize=auto;html=1;endArrow=none;endFill=0;" parent="1" source="32DjMHj66T7dqpbvuF7c-63" edge="1">
          <mxGeometry relative="1" as="geometry">
            <mxPoint x="205.5" y="2650" as="targetPoint" />
          </mxGeometry>
        </mxCell>
        <mxCell id="32DjMHj66T7dqpbvuF7c-63" value="" style="html=1;whiteSpace=wrap;" parent="1" vertex="1">
          <mxGeometry x="80.5" y="2470" width="250" height="140" as="geometry" />
        </mxCell>
        <mxCell id="32DjMHj66T7dqpbvuF7c-64" value="&lt;b&gt;DBMS&lt;/b&gt;" style="text;html=1;align=center;verticalAlign=middle;resizable=0;points=[];autosize=1;strokeColor=none;fillColor=none;" parent="1" vertex="1">
          <mxGeometry x="165.5" y="2500" width="60" height="30" as="geometry" />
        </mxCell>
        <mxCell id="32DjMHj66T7dqpbvuF7c-65" value="" style="shape=module;align=left;spacingLeft=20;align=center;verticalAlign=top;whiteSpace=wrap;html=1;" parent="1" vertex="1">
          <mxGeometry x="265.5" y="2480" width="50" height="50" as="geometry" />
        </mxCell>
        <mxCell id="32DjMHj66T7dqpbvuF7c-66" value="&amp;lt;&amp;lt; component &amp;gt;&amp;gt;" style="text;html=1;align=center;verticalAlign=middle;resizable=0;points=[];autosize=1;strokeColor=none;fillColor=none;" parent="1" vertex="1">
          <mxGeometry x="70.5" y="2470" width="120" height="30" as="geometry" />
        </mxCell>
        <mxCell id="32DjMHj66T7dqpbvuF7c-73" style="edgeStyle=orthogonalEdgeStyle;rounded=0;orthogonalLoop=1;jettySize=auto;html=1;dashed=1;" parent="1" source="32DjMHj66T7dqpbvuF7c-67" target="32DjMHj66T7dqpbvuF7c-63" edge="1">
          <mxGeometry relative="1" as="geometry" />
        </mxCell>
        <mxCell id="32DjMHj66T7dqpbvuF7c-67" value="&lt;b&gt;H2&lt;/b&gt;" style="html=1;whiteSpace=wrap;" parent="1" vertex="1">
          <mxGeometry x="410.5" y="2470" width="130" height="140" as="geometry" />
        </mxCell>
        <mxCell id="32DjMHj66T7dqpbvuF7c-68" value="" style="shape=note;size=20;whiteSpace=wrap;html=1;" parent="1" vertex="1">
          <mxGeometry x="500.5" y="2480" width="30" height="40" as="geometry" />
        </mxCell>
        <mxCell id="32DjMHj66T7dqpbvuF7c-69" value="&amp;lt;&amp;lt; artifact &amp;gt;&amp;gt;" style="text;html=1;align=center;verticalAlign=middle;resizable=0;points=[];autosize=1;strokeColor=none;fillColor=none;" parent="1" vertex="1">
          <mxGeometry x="410.5" y="2470" width="90" height="30" as="geometry" />
        </mxCell>
        <mxCell id="32DjMHj66T7dqpbvuF7c-74" value="" style="edgeStyle=orthogonalEdgeStyle;rounded=0;orthogonalLoop=1;jettySize=auto;html=1;dashed=1;" parent="1" source="32DjMHj66T7dqpbvuF7c-75" edge="1">
          <mxGeometry relative="1" as="geometry">
            <mxPoint x="1287.5" y="2870" as="targetPoint" />
          </mxGeometry>
        </mxCell>
        <mxCell id="32DjMHj66T7dqpbvuF7c-75" value="&lt;b&gt;Java-Anwendung&lt;/b&gt;" style="html=1;whiteSpace=wrap;" parent="1" vertex="1">
          <mxGeometry x="1222.5" y="2950" width="130" height="140" as="geometry" />
        </mxCell>
        <mxCell id="32DjMHj66T7dqpbvuF7c-76" value="" style="shape=note;size=20;whiteSpace=wrap;html=1;" parent="1" vertex="1">
          <mxGeometry x="1312.5" y="2960" width="30" height="40" as="geometry" />
        </mxCell>
        <mxCell id="32DjMHj66T7dqpbvuF7c-77" value="&amp;lt;&amp;lt; artifact &amp;gt;&amp;gt;" style="text;html=1;align=center;verticalAlign=middle;resizable=0;points=[];autosize=1;strokeColor=none;fillColor=none;" parent="1" vertex="1">
          <mxGeometry x="1222.5" y="2950" width="90" height="30" as="geometry" />
        </mxCell>
        <mxCell id="32DjMHj66T7dqpbvuF7c-78" value="&amp;lt;&amp;lt; manifest &amp;gt;&amp;gt;" style="text;html=1;align=center;verticalAlign=middle;resizable=0;points=[];autosize=1;strokeColor=none;fillColor=none;" parent="1" vertex="1">
          <mxGeometry x="1288.5" y="2898" width="100" height="30" as="geometry" />
        </mxCell>
        <mxCell id="32DjMHj66T7dqpbvuF7c-105" style="edgeStyle=orthogonalEdgeStyle;rounded=0;orthogonalLoop=1;jettySize=auto;html=1;endArrow=none;endFill=0;" parent="1" source="32DjMHj66T7dqpbvuF7c-79" edge="1">
          <mxGeometry relative="1" as="geometry">
            <mxPoint x="1278.5" y="2650" as="targetPoint" />
          </mxGeometry>
        </mxCell>
        <mxCell id="32DjMHj66T7dqpbvuF7c-79" value="" style="html=1;whiteSpace=wrap;" parent="1" vertex="1">
          <mxGeometry x="1153.5" y="2470" width="250" height="140" as="geometry" />
        </mxCell>
        <mxCell id="32DjMHj66T7dqpbvuF7c-80" value="&lt;b&gt;DBMS&lt;/b&gt;" style="text;html=1;align=center;verticalAlign=middle;resizable=0;points=[];autosize=1;strokeColor=none;fillColor=none;" parent="1" vertex="1">
          <mxGeometry x="1238.5" y="2500" width="60" height="30" as="geometry" />
        </mxCell>
        <mxCell id="32DjMHj66T7dqpbvuF7c-81" value="" style="shape=module;align=left;spacingLeft=20;align=center;verticalAlign=top;whiteSpace=wrap;html=1;" parent="1" vertex="1">
          <mxGeometry x="1338.5" y="2480" width="50" height="50" as="geometry" />
        </mxCell>
        <mxCell id="32DjMHj66T7dqpbvuF7c-82" value="&amp;lt;&amp;lt; component &amp;gt;&amp;gt;" style="text;html=1;align=center;verticalAlign=middle;resizable=0;points=[];autosize=1;strokeColor=none;fillColor=none;" parent="1" vertex="1">
          <mxGeometry x="1153.5" y="2470" width="120" height="30" as="geometry" />
        </mxCell>
        <mxCell id="32DjMHj66T7dqpbvuF7c-83" style="edgeStyle=orthogonalEdgeStyle;rounded=0;orthogonalLoop=1;jettySize=auto;html=1;dashed=1;" parent="1" source="32DjMHj66T7dqpbvuF7c-84" target="32DjMHj66T7dqpbvuF7c-79" edge="1">
          <mxGeometry relative="1" as="geometry" />
        </mxCell>
        <mxCell id="32DjMHj66T7dqpbvuF7c-84" value="&lt;b&gt;MariaDB&lt;/b&gt;" style="html=1;whiteSpace=wrap;" parent="1" vertex="1">
          <mxGeometry x="1483.5" y="2470" width="130" height="140" as="geometry" />
        </mxCell>
        <mxCell id="32DjMHj66T7dqpbvuF7c-85" value="" style="shape=note;size=20;whiteSpace=wrap;html=1;" parent="1" vertex="1">
          <mxGeometry x="1573.5" y="2480" width="30" height="40" as="geometry" />
        </mxCell>
        <mxCell id="32DjMHj66T7dqpbvuF7c-86" value="&amp;lt;&amp;lt; artifact &amp;gt;&amp;gt;" style="text;html=1;align=center;verticalAlign=middle;resizable=0;points=[];autosize=1;strokeColor=none;fillColor=none;" parent="1" vertex="1">
          <mxGeometry x="1483.5" y="2470" width="90" height="30" as="geometry" />
        </mxCell>
        <mxCell id="32DjMHj66T7dqpbvuF7c-87" value="&amp;lt;&amp;lt; manifest &amp;gt;&amp;gt;" style="text;html=1;align=center;verticalAlign=middle;resizable=0;points=[];autosize=1;strokeColor=none;fillColor=none;" parent="1" vertex="1">
          <mxGeometry x="320.5" y="2510" width="100" height="30" as="geometry" />
        </mxCell>
        <mxCell id="32DjMHj66T7dqpbvuF7c-88" value="&amp;lt;&amp;lt; manifest &amp;gt;&amp;gt;" style="text;html=1;align=center;verticalAlign=middle;resizable=0;points=[];autosize=1;strokeColor=none;fillColor=none;" parent="1" vertex="1">
          <mxGeometry x="1393.5" y="2510" width="100" height="30" as="geometry" />
        </mxCell>
        <mxCell id="32DjMHj66T7dqpbvuF7c-103" value="" style="shape=providedRequiredInterface;html=1;verticalLabelPosition=bottom;sketch=0;direction=south;" parent="1" vertex="1">
          <mxGeometry x="184" y="2650" width="43" height="42" as="geometry" />
        </mxCell>
        <mxCell id="32DjMHj66T7dqpbvuF7c-106" value="" style="shape=providedRequiredInterface;html=1;verticalLabelPosition=bottom;sketch=0;direction=south;" parent="1" vertex="1">
          <mxGeometry x="1257" y="2650" width="43" height="42" as="geometry" />
        </mxCell>
        <mxCell id="32DjMHj66T7dqpbvuF7c-107" value="Datenzugriff" style="text;html=1;align=center;verticalAlign=middle;resizable=0;points=[];autosize=1;strokeColor=none;fillColor=none;" parent="1" vertex="1">
          <mxGeometry x="231.5" y="2656" width="90" height="30" as="geometry" />
        </mxCell>
        <mxCell id="32DjMHj66T7dqpbvuF7c-108" value="Datenzugriff" style="text;html=1;align=center;verticalAlign=middle;resizable=0;points=[];autosize=1;strokeColor=none;fillColor=none;" parent="1" vertex="1">
          <mxGeometry x="1293.5" y="2656" width="90" height="30" as="geometry" />
        </mxCell>
        <mxCell id="32DjMHj66T7dqpbvuF7c-119" style="edgeStyle=orthogonalEdgeStyle;rounded=0;orthogonalLoop=1;jettySize=auto;html=1;exitX=0;exitY=0.5;exitDx=0;exitDy=0;endArrow=none;endFill=0;entryX=0;entryY=0.5;entryDx=0;entryDy=0;entryPerimeter=0;" parent="1" source="32DjMHj66T7dqpbvuF7c-109" target="32DjMHj66T7dqpbvuF7c-121" edge="1">
          <mxGeometry relative="1" as="geometry">
            <mxPoint x="520.5" y="2790" as="targetPoint" />
          </mxGeometry>
        </mxCell>
        <mxCell id="32DjMHj66T7dqpbvuF7c-123" style="edgeStyle=orthogonalEdgeStyle;rounded=0;orthogonalLoop=1;jettySize=auto;html=1;endArrow=none;endFill=0;entryX=0;entryY=0.5;entryDx=0;entryDy=0;entryPerimeter=0;" parent="1" source="32DjMHj66T7dqpbvuF7c-109" target="32DjMHj66T7dqpbvuF7c-125" edge="1">
          <mxGeometry relative="1" as="geometry">
            <mxPoint x="990.5000000000005" y="2800" as="targetPoint" />
          </mxGeometry>
        </mxCell>
        <mxCell id="32DjMHj66T7dqpbvuF7c-109" value="" style="html=1;whiteSpace=wrap;" parent="1" vertex="1">
          <mxGeometry x="650.5" y="2895" width="250" height="140" as="geometry" />
        </mxCell>
        <mxCell id="32DjMHj66T7dqpbvuF7c-110" value="&lt;b&gt;API&lt;/b&gt;" style="text;html=1;align=center;verticalAlign=middle;resizable=0;points=[];autosize=1;strokeColor=none;fillColor=none;" parent="1" vertex="1">
          <mxGeometry x="745.5" y="2925" width="40" height="30" as="geometry" />
        </mxCell>
        <mxCell id="32DjMHj66T7dqpbvuF7c-111" value="" style="shape=module;align=left;spacingLeft=20;align=center;verticalAlign=top;whiteSpace=wrap;html=1;" parent="1" vertex="1">
          <mxGeometry x="835.5" y="2905" width="50" height="50" as="geometry" />
        </mxCell>
        <mxCell id="32DjMHj66T7dqpbvuF7c-112" value="&amp;lt;&amp;lt; component &amp;gt;&amp;gt;" style="text;html=1;align=center;verticalAlign=middle;resizable=0;points=[];autosize=1;strokeColor=none;fillColor=none;" parent="1" vertex="1">
          <mxGeometry x="640.5" y="2895" width="120" height="30" as="geometry" />
        </mxCell>
        <mxCell id="32DjMHj66T7dqpbvuF7c-118" style="edgeStyle=orthogonalEdgeStyle;rounded=0;orthogonalLoop=1;jettySize=auto;html=1;exitX=0.5;exitY=0;exitDx=0;exitDy=0;entryX=0.534;entryY=0.997;entryDx=0;entryDy=0;entryPerimeter=0;dashed=1;" parent="1" source="32DjMHj66T7dqpbvuF7c-113" target="32DjMHj66T7dqpbvuF7c-109" edge="1">
          <mxGeometry relative="1" as="geometry" />
        </mxCell>
        <mxCell id="32DjMHj66T7dqpbvuF7c-113" value="&lt;b&gt;REST-API&lt;br&gt;&lt;/b&gt;" style="html=1;whiteSpace=wrap;" parent="1" vertex="1">
          <mxGeometry x="719.5" y="3102" width="130" height="140" as="geometry" />
        </mxCell>
        <mxCell id="32DjMHj66T7dqpbvuF7c-114" value="" style="shape=note;size=20;whiteSpace=wrap;html=1;" parent="1" vertex="1">
          <mxGeometry x="809.5" y="3112" width="30" height="40" as="geometry" />
        </mxCell>
        <mxCell id="32DjMHj66T7dqpbvuF7c-115" value="&amp;lt;&amp;lt; artifact &amp;gt;&amp;gt;" style="text;html=1;align=center;verticalAlign=middle;resizable=0;points=[];autosize=1;strokeColor=none;fillColor=none;" parent="1" vertex="1">
          <mxGeometry x="715.5" y="3102" width="90" height="30" as="geometry" />
        </mxCell>
        <mxCell id="32DjMHj66T7dqpbvuF7c-116" value="&amp;lt;&amp;lt; manifest &amp;gt;&amp;gt;" style="text;html=1;align=center;verticalAlign=middle;resizable=0;points=[];autosize=1;strokeColor=none;fillColor=none;" parent="1" vertex="1">
          <mxGeometry x="785.5" y="3055" width="100" height="30" as="geometry" />
        </mxCell>
        <mxCell id="32DjMHj66T7dqpbvuF7c-121" value="" style="shape=providedRequiredInterface;html=1;verticalLabelPosition=bottom;sketch=0;direction=west;" parent="1" vertex="1">
          <mxGeometry x="460.5" y="2778.5" width="42" height="43" as="geometry" />
        </mxCell>
        <mxCell id="32DjMHj66T7dqpbvuF7c-125" value="" style="shape=providedRequiredInterface;html=1;verticalLabelPosition=bottom;sketch=0;direction=east;" parent="1" vertex="1">
          <mxGeometry x="1008.5" y="2778.5" width="42" height="43" as="geometry" />
        </mxCell>
        <mxCell id="32DjMHj66T7dqpbvuF7c-126" value="Komponentensteuerung-&lt;br&gt;Empfangsknoten" style="text;html=1;align=center;verticalAlign=middle;resizable=0;points=[];autosize=1;strokeColor=none;fillColor=none;" parent="1" vertex="1">
          <mxGeometry x="401.5" y="2730" width="160" height="40" as="geometry" />
        </mxCell>
        <mxCell id="32DjMHj66T7dqpbvuF7c-127" value="Komponentensteuerung" style="text;html=1;align=center;verticalAlign=middle;resizable=0;points=[];autosize=1;strokeColor=none;fillColor=none;" parent="1" vertex="1">
          <mxGeometry x="954.5" y="2748.5" width="150" height="30" as="geometry" />
        </mxCell>
        <mxCell id="32DjMHj66T7dqpbvuF7c-129" value="" style="edgeStyle=none;orthogonalLoop=1;jettySize=auto;html=1;rounded=0;entryX=1;entryY=0.5;entryDx=0;entryDy=0;entryPerimeter=0;endArrow=none;endFill=0;" parent="1" target="32DjMHj66T7dqpbvuF7c-136" edge="1">
          <mxGeometry width="100" relative="1" as="geometry">
            <mxPoint x="1100.5" y="2800" as="sourcePoint" />
            <mxPoint x="1100.5" y="2640" as="targetPoint" />
            <Array as="points">
              <mxPoint x="1100.5" y="2660" />
            </Array>
          </mxGeometry>
        </mxCell>
        <mxCell id="32DjMHj66T7dqpbvuF7c-130" value="" style="edgeStyle=none;orthogonalLoop=1;jettySize=auto;html=1;rounded=0;endArrow=none;endFill=0;entryX=1;entryY=0.5;entryDx=0;entryDy=0;entryPerimeter=0;" parent="1" target="32DjMHj66T7dqpbvuF7c-132" edge="1">
          <mxGeometry width="100" relative="1" as="geometry">
            <mxPoint x="370.5" y="2800" as="sourcePoint" />
            <mxPoint x="550.5" y="2660" as="targetPoint" />
            <Array as="points">
              <mxPoint x="370.5" y="2660" />
            </Array>
          </mxGeometry>
        </mxCell>
        <mxCell id="32DjMHj66T7dqpbvuF7c-132" value="" style="shape=providedRequiredInterface;html=1;verticalLabelPosition=bottom;sketch=0;direction=west;" parent="1" vertex="1">
          <mxGeometry x="463.5" y="2639" width="42" height="43" as="geometry" />
        </mxCell>
        <mxCell id="32DjMHj66T7dqpbvuF7c-136" value="" style="shape=providedRequiredInterface;html=1;verticalLabelPosition=bottom;sketch=0;direction=east;" parent="1" vertex="1">
          <mxGeometry x="1005.5" y="2639" width="42" height="43" as="geometry" />
        </mxCell>
        <mxCell id="32DjMHj66T7dqpbvuF7c-138" value="xx" style="text;html=1;align=center;verticalAlign=middle;resizable=0;points=[];autosize=1;strokeColor=none;fillColor=none;" parent="1" vertex="1">
          <mxGeometry x="1006.5" y="2686" width="40" height="30" as="geometry" />
        </mxCell>
        <mxCell id="32DjMHj66T7dqpbvuF7c-139" value="xx" style="text;html=1;align=center;verticalAlign=middle;resizable=0;points=[];autosize=1;strokeColor=none;fillColor=none;" parent="1" vertex="1">
          <mxGeometry x="455.5" y="2682" width="40" height="30" as="geometry" />
        </mxCell>
        <mxCell id="32DjMHj66T7dqpbvuF7c-145" style="edgeStyle=orthogonalEdgeStyle;rounded=0;orthogonalLoop=1;jettySize=auto;html=1;exitX=1;exitY=0.5;exitDx=0;exitDy=0;entryX=0.006;entryY=0.397;entryDx=0;entryDy=0;entryPerimeter=0;endArrow=none;endFill=0;" parent="1" source="32DjMHj66T7dqpbvuF7c-144" target="32DjMHj66T7dqpbvuF7c-54" edge="1">
          <mxGeometry relative="1" as="geometry" />
        </mxCell>
        <mxCell id="32DjMHj66T7dqpbvuF7c-144" value="Geräte registrieren" style="ellipse;whiteSpace=wrap;html=1;" parent="1" vertex="1">
          <mxGeometry x="-189.5" y="2730" width="110" height="110" as="geometry" />
        </mxCell>
        <mxCell id="32DjMHj66T7dqpbvuF7c-154" style="edgeStyle=orthogonalEdgeStyle;rounded=0;orthogonalLoop=1;jettySize=auto;html=1;exitX=0.75;exitY=1;exitDx=0;exitDy=0;endArrow=none;endFill=0;" parent="1" source="32DjMHj66T7dqpbvuF7c-146" edge="1">
          <mxGeometry relative="1" as="geometry">
            <mxPoint x="699.6999999999998" y="2480" as="targetPoint" />
          </mxGeometry>
        </mxCell>
        <mxCell id="32DjMHj66T7dqpbvuF7c-146" value="" style="html=1;whiteSpace=wrap;" parent="1" vertex="1">
          <mxGeometry x="512.5" y="2140" width="250" height="140" as="geometry" />
        </mxCell>
        <mxCell id="32DjMHj66T7dqpbvuF7c-147" value="&lt;b&gt;Wetter-Station&lt;/b&gt;" style="text;html=1;align=center;verticalAlign=middle;resizable=0;points=[];autosize=1;strokeColor=none;fillColor=none;" parent="1" vertex="1">
          <mxGeometry x="572.5" y="2170" width="110" height="30" as="geometry" />
        </mxCell>
        <mxCell id="32DjMHj66T7dqpbvuF7c-148" value="" style="shape=module;align=left;spacingLeft=20;align=center;verticalAlign=top;whiteSpace=wrap;html=1;" parent="1" vertex="1">
          <mxGeometry x="697.5" y="2150" width="50" height="50" as="geometry" />
        </mxCell>
        <mxCell id="32DjMHj66T7dqpbvuF7c-149" value="&amp;lt;&amp;lt; component &amp;gt;&amp;gt;" style="text;html=1;align=center;verticalAlign=middle;resizable=0;points=[];autosize=1;strokeColor=none;fillColor=none;" parent="1" vertex="1">
          <mxGeometry x="502.5" y="2140" width="120" height="30" as="geometry" />
        </mxCell>
        <mxCell id="32DjMHj66T7dqpbvuF7c-155" style="edgeStyle=orthogonalEdgeStyle;rounded=0;orthogonalLoop=1;jettySize=auto;html=1;exitX=0.25;exitY=1;exitDx=0;exitDy=0;endArrow=none;endFill=0;" parent="1" source="32DjMHj66T7dqpbvuF7c-150" edge="1">
          <mxGeometry relative="1" as="geometry">
            <mxPoint x="858.9000000000001" y="2480" as="targetPoint" />
          </mxGeometry>
        </mxCell>
        <mxCell id="32DjMHj66T7dqpbvuF7c-150" value="" style="html=1;whiteSpace=wrap;" parent="1" vertex="1">
          <mxGeometry x="796.5" y="2140" width="250" height="140" as="geometry" />
        </mxCell>
        <mxCell id="32DjMHj66T7dqpbvuF7c-151" value="&lt;b&gt;Zeit-Station&lt;/b&gt;" style="text;html=1;align=center;verticalAlign=middle;resizable=0;points=[];autosize=1;strokeColor=none;fillColor=none;" parent="1" vertex="1">
          <mxGeometry x="866.5" y="2170" width="90" height="30" as="geometry" />
        </mxCell>
        <mxCell id="32DjMHj66T7dqpbvuF7c-152" value="" style="shape=module;align=left;spacingLeft=20;align=center;verticalAlign=top;whiteSpace=wrap;html=1;" parent="1" vertex="1">
          <mxGeometry x="981.5" y="2150" width="50" height="50" as="geometry" />
        </mxCell>
        <mxCell id="32DjMHj66T7dqpbvuF7c-153" value="&amp;lt;&amp;lt; component &amp;gt;&amp;gt;" style="text;html=1;align=center;verticalAlign=middle;resizable=0;points=[];autosize=1;strokeColor=none;fillColor=none;" parent="1" vertex="1">
          <mxGeometry x="786.5" y="2140" width="120" height="30" as="geometry" />
        </mxCell>
        <mxCell id="32DjMHj66T7dqpbvuF7c-159" style="edgeStyle=orthogonalEdgeStyle;rounded=0;orthogonalLoop=1;jettySize=auto;html=1;exitX=0;exitY=0.5;exitDx=0;exitDy=0;exitPerimeter=0;entryX=0.86;entryY=0;entryDx=0;entryDy=0;entryPerimeter=0;endArrow=none;endFill=0;" parent="1" source="32DjMHj66T7dqpbvuF7c-156" target="32DjMHj66T7dqpbvuF7c-38" edge="1">
          <mxGeometry relative="1" as="geometry">
            <mxPoint x="860.5" y="2570" as="targetPoint" />
          </mxGeometry>
        </mxCell>
        <mxCell id="32DjMHj66T7dqpbvuF7c-156" value="" style="shape=providedRequiredInterface;html=1;verticalLabelPosition=bottom;sketch=0;direction=north;" parent="1" vertex="1">
          <mxGeometry x="839" y="2478" width="43" height="42" as="geometry" />
        </mxCell>
        <mxCell id="32DjMHj66T7dqpbvuF7c-160" style="edgeStyle=orthogonalEdgeStyle;rounded=0;orthogonalLoop=1;jettySize=auto;html=1;entryX=0.521;entryY=0;entryDx=0;entryDy=0;entryPerimeter=0;endArrow=none;endFill=0;" parent="1" source="32DjMHj66T7dqpbvuF7c-157" target="32DjMHj66T7dqpbvuF7c-41" edge="1">
          <mxGeometry relative="1" as="geometry" />
        </mxCell>
        <mxCell id="32DjMHj66T7dqpbvuF7c-157" value="" style="shape=providedRequiredInterface;html=1;verticalLabelPosition=bottom;sketch=0;direction=north;" parent="1" vertex="1">
          <mxGeometry x="676.5" y="2478" width="43" height="42" as="geometry" />
        </mxCell>
        <mxCell id="32DjMHj66T7dqpbvuF7c-161" value="xx" style="text;html=1;align=center;verticalAlign=middle;resizable=0;points=[];autosize=1;strokeColor=none;fillColor=none;" parent="1" vertex="1">
          <mxGeometry x="722.5" y="2485" width="40" height="30" as="geometry" />
        </mxCell>
        <mxCell id="32DjMHj66T7dqpbvuF7c-162" value="xx" style="text;html=1;align=center;verticalAlign=middle;resizable=0;points=[];autosize=1;strokeColor=none;fillColor=none;" parent="1" vertex="1">
          <mxGeometry x="883" y="2490" width="40" height="30" as="geometry" />
        </mxCell>
        <mxCell id="fbWYw56J5eoVxStN6dd2-1" value="&lt;b&gt;&lt;u&gt;&lt;font style=&quot;font-size: 22px;&quot;&gt;TODO:&amp;nbsp; REST API&lt;/font&gt;&lt;/u&gt;&lt;/b&gt;" style="text;html=1;align=center;verticalAlign=middle;resizable=0;points=[];autosize=1;strokeColor=none;fillColor=none;" vertex="1" parent="1">
          <mxGeometry x="745" y="40" width="210" height="40" as="geometry" />
        </mxCell>
        <mxCell id="fbWYw56J5eoVxStN6dd2-6" value="&amp;lt;&amp;lt; source &amp;gt;&amp;gt;&lt;br&gt;&lt;br&gt;&lt;b&gt;&lt;u&gt;util.jar&lt;/u&gt;&lt;/b&gt;" style="rounded=0;whiteSpace=wrap;html=1;fillColor=#52A352;strokeColor=#000000;" vertex="1" parent="1">
          <mxGeometry x="560" y="1089" width="160" height="80" as="geometry" />
        </mxCell>
        <mxCell id="fbWYw56J5eoVxStN6dd2-7" value="" style="shape=note;size=9;whiteSpace=wrap;html=1;fillColor=#52A352;strokeColor=#000000;" vertex="1" parent="1">
          <mxGeometry x="698" y="1093" width="17.5" height="27" as="geometry" />
        </mxCell>
        <mxCell id="fbWYw56J5eoVxStN6dd2-10" value="&amp;lt;&amp;lt; source &amp;gt;&amp;gt;&lt;br&gt;&lt;br&gt;&lt;b&gt;&lt;u&gt;util.jar&lt;/u&gt;&lt;/b&gt;" style="rounded=0;whiteSpace=wrap;html=1;fillColor=#52A352;strokeColor=#000000;" vertex="1" parent="1">
          <mxGeometry x="-520" y="1200" width="160" height="80" as="geometry" />
        </mxCell>
        <mxCell id="fbWYw56J5eoVxStN6dd2-11" value="" style="shape=note;size=9;whiteSpace=wrap;html=1;fillColor=#52A352;strokeColor=#000000;" vertex="1" parent="1">
          <mxGeometry x="-382" y="1204" width="17.5" height="27" as="geometry" />
        </mxCell>
      </root>
    </mxGraphModel>
  </diagram>
</mxfile>
